<svg width="33" height="31" viewBox="0 0 33 31" fill="none" xmlns="http://www.w3.org/2000/svg">
<path d="M6.99729 22.4911L4.78949 30.702C4.74563 30.9383 4.6579 30.9794 4.38637 30.9794H0.296616C0.0146363 30.9794 -0.0292277 30.8931 0.0146359 30.5828L7.9226 3.32958C8.06463 2.83631 8.15027 2.39853 8.19414 1.03792C8.19414 0.855003 8.29231 0.770735 8.43434 0.770735H14.2661C14.452 0.770735 14.5481 0.813897 14.5919 1.03792L23.4586 30.6259C23.5129 30.85 23.4586 30.9794 23.231 30.9794H18.6399C18.3997 30.9794 18.2702 30.926 18.2264 30.7431L15.9204 22.489H6.98893L6.99729 22.4911ZM14.7653 18.0373C13.982 15.0078 12.1439 8.37121 11.4588 5.15879H11.4045C10.8176 8.35888 9.33668 13.7869 8.19623 18.0373H14.7653ZM27.2977 2.80548C27.2977 1.03998 28.5385 0 30.1489 0C31.847 0 33 1.13452 33 2.80548C33 4.61413 31.8032 5.61095 30.0946 5.61095C28.4298 5.61095 27.2873 4.61619 27.2873 2.80548H27.2977ZM27.6131 9.03507C27.6131 8.82132 27.7009 8.735 27.9285 8.735H32.3024C32.553 8.735 32.6386 8.82132 32.6386 9.05563V30.6896C32.6386 30.9137 32.5948 31 32.3128 31H28.0037C27.7218 31 27.634 30.8705 27.634 30.6465V9.03302L27.6131 9.03507Z" fill="black"/>
</svg>
