<svg width="62" height="62" viewBox="0 0 62 62" fill="none" xmlns="http://www.w3.org/2000/svg">
<circle cx="31" cy="31" r="31" fill="white"/>
<path d="M20.9973 37.4911L18.7895 45.702C18.7456 45.9383 18.6579 45.9794 18.3864 45.9794H14.2966C14.0146 45.9794 13.9708 45.8931 14.0146 45.5828L21.9226 18.3296C22.0646 17.8363 22.1503 17.3985 22.1941 16.0379C22.1941 15.855 22.2923 15.7707 22.4343 15.7707H28.2661C28.452 15.7707 28.5481 15.8139 28.5919 16.0379L37.4586 45.6259C37.5129 45.85 37.4586 45.9794 37.231 45.9794H32.6399C32.3997 45.9794 32.2702 45.926 32.2264 45.7431L29.9204 37.489H20.9889L20.9973 37.4911ZM28.7653 33.0373C27.982 30.0078 26.1439 23.3712 25.4588 20.1588H25.4045C24.8176 23.3589 23.3367 28.7869 22.1962 33.0373H28.7653ZM41.2977 17.8055C41.2977 16.04 42.5385 15 44.1489 15C45.847 15 47 16.1345 47 17.8055C47 19.6141 45.8032 20.611 44.0946 20.611C42.4298 20.611 41.2873 19.6162 41.2873 17.8055H41.2977ZM41.6131 24.0351C41.6131 23.8213 41.7009 23.735 41.9285 23.735H46.3024C46.553 23.735 46.6386 23.8213 46.6386 24.0556V45.6896C46.6386 45.9137 46.5948 46 46.3128 46H42.0037C41.7218 46 41.634 45.8705 41.634 45.6465V24.033L41.6131 24.0351Z" fill="black"/>
</svg>
