<svg width="56" height="56" viewBox="0 0 56 56" fill="none" xmlns="http://www.w3.org/2000/svg">
<path d="M21.7778 31.1111H3.11111C2.28599 31.1111 1.49467 31.4389 0.911223 32.0223C0.327777 32.6058 0 33.3971 0 34.2222V52.8889C0 53.714 0.327777 54.5053 0.911223 55.0888C1.49467 55.6722 2.28599 56 3.11111 56H21.7778C22.6029 56 23.3942 55.6722 23.9777 55.0888C24.5611 54.5053 24.8889 53.714 24.8889 52.8889V34.2222C24.8889 33.3971 24.5611 32.6058 23.9777 32.0223C23.3942 31.4389 22.6029 31.1111 21.7778 31.1111ZM18.6667 49.7778H6.22222V37.3333H18.6667V49.7778ZM52.8889 0H34.2222C33.3971 0 32.6058 0.327777 32.0223 0.911223C31.4389 1.49467 31.1111 2.28599 31.1111 3.11111V21.7778C31.1111 22.6029 31.4389 23.3942 32.0223 23.9777C32.6058 24.5611 33.3971 24.8889 34.2222 24.8889H52.8889C53.714 24.8889 54.5053 24.5611 55.0888 23.9777C55.6722 23.3942 56 22.6029 56 21.7778V3.11111C56 2.28599 55.6722 1.49467 55.0888 0.911223C54.5053 0.327777 53.714 0 52.8889 0ZM49.7778 18.6667H37.3333V6.22222H49.7778V18.6667ZM52.8889 40.4444H46.6667V34.2222C46.6667 33.3971 46.3389 32.6058 45.7554 32.0223C45.172 31.4389 44.3807 31.1111 43.5556 31.1111C42.7304 31.1111 41.9391 31.4389 41.3557 32.0223C40.7722 32.6058 40.4444 33.3971 40.4444 34.2222V40.4444H34.2222C33.3971 40.4444 32.6058 40.7722 32.0223 41.3557C31.4389 41.9391 31.1111 42.7304 31.1111 43.5556C31.1111 44.3807 31.4389 45.172 32.0223 45.7554C32.6058 46.3389 33.3971 46.6667 34.2222 46.6667H40.4444V52.8889C40.4444 53.714 40.7722 54.5053 41.3557 55.0888C41.9391 55.6722 42.7304 56 43.5556 56C44.3807 56 45.172 55.6722 45.7554 55.0888C46.3389 54.5053 46.6667 53.714 46.6667 52.8889V46.6667H52.8889C53.714 46.6667 54.5053 46.3389 55.0888 45.7554C55.6722 45.172 56 44.3807 56 43.5556C56 42.7304 55.6722 41.9391 55.0888 41.3557C54.5053 40.7722 53.714 40.4444 52.8889 40.4444ZM21.7778 0H3.11111C2.28599 0 1.49467 0.327777 0.911223 0.911223C0.327777 1.49467 0 2.28599 0 3.11111V21.7778C0 22.6029 0.327777 23.3942 0.911223 23.9777C1.49467 24.5611 2.28599 24.8889 3.11111 24.8889H21.7778C22.6029 24.8889 23.3942 24.5611 23.9777 23.9777C24.5611 23.3942 24.8889 22.6029 24.8889 21.7778V3.11111C24.8889 2.28599 24.5611 1.49467 23.9777 0.911223C23.3942 0.327777 22.6029 0 21.7778 0ZM18.6667 18.6667H6.22222V6.22222H18.6667V18.6667Z" fill="white"/>
</svg>
