<svg width="62" height="62" viewBox="0 0 62 62" fill="none" xmlns="http://www.w3.org/2000/svg">
<circle cx="31" cy="31" r="31" fill="white"/>
<path d="M32.3032 42.9429V37.422C33.6989 38.3329 35.3567 38.8286 37.016 38.8286H37.1608C39.0035 38.8286 40.6869 38.253 42.0593 37.3955L42.0745 37.386L42.0889 37.3755C43.4545 36.38 44.5522 35.074 45.0256 33.4468C45.484 31.8717 45.4905 30.2752 44.8785 28.6777C44.4747 27.0723 43.5207 25.8916 42.4109 25.0468C43.6165 24.1944 44.4845 23.0398 45.0117 21.6809C45.6354 20.0733 45.6316 18.4667 45.1704 16.8817C44.697 15.2545 43.5993 13.9486 42.2337 12.9531C40.8213 11.9235 38.9707 11.5 37.3056 11.5H23.984C22.1433 11.5 20.4615 12.0744 19.0899 12.9304C17.3779 13.953 16.453 15.4116 15.8498 16.8252L15.838 16.8528L15.8296 16.8817C15.3712 18.4568 15.3605 20.2043 15.9913 21.6886C16.5195 23.046 17.3882 24.1992 18.5941 25.0503C17.7662 25.6636 16.9594 26.4126 16.4477 27.3718C15.8325 28.525 15.52 29.691 15.52 31C15.52 32.309 15.8325 33.475 16.4477 34.6282C16.9578 35.5844 17.6707 36.3389 18.5664 36.9693C17.3726 37.8201 16.5122 38.9688 15.9883 40.3191C15.3646 41.9267 15.3684 43.5333 15.8296 45.1183C16.3034 46.7465 17.4027 48.0554 18.9211 49.0542C20.3322 50.0785 22.1781 50.5 23.8392 50.5C25.9956 50.5 28.1271 49.6367 29.7907 48.361L29.8103 48.346L29.8283 48.3291C31.3607 46.8929 32.3032 45.0021 32.3032 42.9429ZM37.1608 23.5786H32.3032V14.8071H37.1608C37.9161 14.8071 38.5173 14.8165 38.9758 15.0313L38.9938 15.0398L39.0125 15.0468C39.7262 15.3143 40.1916 15.5474 40.5352 15.9767L40.5797 16.0323L40.638 16.0733C41.0972 16.3961 41.3418 16.8276 41.6241 17.4891C41.8962 18.1266 42.0184 18.6013 42.0184 19.1929C42.0184 19.8067 41.8864 20.401 41.6428 20.8575C41.3882 21.3349 41.0041 21.8227 40.5797 22.3534C40.0208 22.746 39.5026 23.1048 38.994 23.3458C38.372 23.5745 37.7414 23.5786 37.1608 23.5786ZM23.8657 14.8071H28.6968V23.3071H23.8392C22.6673 23.3071 21.5011 22.8168 20.733 21.9769L20.7071 21.9485L20.6772 21.9245C19.8086 21.2267 19.416 20.1652 19.416 19.0571C19.416 17.9855 19.9293 16.8928 20.706 16.1648C21.477 15.4421 22.6612 14.9378 23.8657 14.8071ZM27.2909 45.8102L27.276 45.8221L27.2621 45.8352C26.3617 46.6791 25.1915 47.0571 23.8392 47.0571C23.0839 47.0571 22.4827 47.0478 22.0242 46.833L22.0062 46.8245L21.9875 46.8175C21.2724 46.5494 20.7738 46.3059 20.4164 45.9709L20.3907 45.9469L20.362 45.9267C19.9028 45.6039 19.6582 45.1724 19.3759 44.5109L19.3674 44.4909L19.3572 44.4718C19.1136 44.0153 18.9816 43.421 18.9816 42.8071C18.9816 42.1933 19.1136 41.599 19.3572 41.1425C19.6118 40.6651 19.9959 40.1773 20.4203 39.6466C20.9792 39.254 21.4974 38.8952 22.006 38.6542C22.628 38.4255 23.2586 38.4214 23.8392 38.4214H28.6968V42.8071C28.6968 44.018 28.1823 45.0941 27.2909 45.8102ZM33.8827 28.1077L33.8968 28.0945L33.9098 28.0803C34.6533 27.2672 35.8007 26.8829 37.0423 26.75H37.1608C37.9161 26.75 38.5173 26.7593 38.9758 26.9742L38.9938 26.9826L39.0125 26.9896C39.7262 27.2572 40.1916 27.4902 40.5352 27.9195L40.5797 27.9752L40.638 28.0162C41.0972 28.339 41.3418 28.7704 41.6241 29.432L41.6326 29.4519L41.6428 29.4711C41.8864 29.9276 42.0184 30.5219 42.0184 31.1357C42.0184 31.7495 41.8864 32.3438 41.6428 32.8004C41.3882 33.2777 41.0041 33.7656 40.5797 34.2962C40.0499 34.6684 39.5567 35.0101 39.0737 35.25H37.1608H37.016C35.8441 35.25 34.6779 34.7596 33.9098 33.9197C33.0905 33.0239 32.5928 32.0532 32.5928 31C32.5928 29.9283 33.106 28.8356 33.8827 28.1077ZM19.1264 31C19.1264 29.9385 19.6314 28.8434 20.5612 27.972C21.4615 27.1281 22.6317 26.75 23.984 26.75H28.8416V35.25H23.984C22.6708 35.25 21.4814 34.7605 20.5473 34.015C19.6263 33.1457 19.1264 32.0562 19.1264 31Z" fill="#0094E7" stroke="#0094E7"/>
</svg>
