<svg width="31" height="40" viewBox="0 0 31 40" fill="none" xmlns="http://www.w3.org/2000/svg">
<path d="M17.3032 31.9429V26.422C18.6989 27.3329 20.3567 27.8286 22.016 27.8286H22.1608C24.0035 27.8286 25.6869 27.253 27.0593 26.3955L27.0745 26.386L27.0889 26.3755C28.4545 25.38 29.5522 24.074 30.0256 22.4468C30.484 20.8717 30.4905 19.2752 29.8785 17.6777C29.4747 16.0723 28.5207 14.8916 27.4109 14.0468C28.6165 13.1944 29.4845 12.0398 30.0117 10.6809C30.6354 9.07332 30.6316 7.46671 30.1704 5.88173C29.697 4.25453 28.5993 2.9486 27.2337 1.9531C25.8213 0.923514 23.9707 0.5 22.3056 0.5H8.98402C7.14329 0.5 5.46146 1.07437 4.08986 1.93038C2.37791 2.95302 1.45305 4.41161 0.849774 5.82517L0.837964 5.85284L0.829557 5.88173C0.37123 7.45682 0.360454 9.20429 0.99129 10.6886C1.51953 12.046 2.3882 13.1992 3.59411 14.0503C2.76624 14.6636 1.95938 15.4126 1.44769 16.3718C0.832509 17.525 0.520046 18.691 0.520046 20C0.520046 21.309 0.832509 22.475 1.44769 23.6282C1.95778 24.5844 2.6707 25.3389 3.56639 25.9693C2.37261 26.8201 1.51221 27.9688 0.988299 29.3191C0.36461 30.9267 0.368352 32.5333 0.829557 34.1183C1.30335 35.7465 2.40273 37.0554 3.92113 38.0542C5.33223 39.0785 7.17807 39.5 8.83922 39.5C10.9956 39.5 13.1271 38.6367 14.7907 37.361L14.8103 37.346L14.8283 37.3291C16.3607 35.8929 17.3032 34.0021 17.3032 31.9429ZM22.1608 12.5786H17.3032V3.80714H22.1608C22.9161 3.80714 23.5173 3.81645 23.9758 4.03132L23.9938 4.03977L24.0125 4.04675C24.7262 4.31434 25.1916 4.54737 25.5352 4.97668L25.5797 5.03234L25.638 5.07334C26.0972 5.3961 26.3418 5.82757 26.6241 6.48912C26.8962 7.1266 27.0184 7.6013 27.0184 8.19286C27.0184 8.80668 26.8864 9.40098 26.6428 9.85752C26.3882 10.3349 26.0041 10.8227 25.5797 11.3534C25.0208 11.746 24.5026 12.1048 23.994 12.3458C23.372 12.5745 22.7414 12.5786 22.1608 12.5786ZM8.86572 3.80714H13.6968V12.3071H8.83922C7.66732 12.3071 6.50113 11.8168 5.733 10.9769L5.7071 10.9485L5.67718 10.9245C4.80856 10.2267 4.41604 9.16519 4.41604 8.05714C4.41604 6.98546 4.92928 5.89275 5.70596 5.16481C6.47704 4.44211 7.66117 3.93785 8.86572 3.80714ZM12.2909 34.8102L12.276 34.8221L12.2621 34.8352C11.3617 35.6791 10.1915 36.0571 8.83922 36.0571C8.08393 36.0571 7.48271 36.0478 7.0242 35.833L7.00618 35.8245L6.98755 35.8175C6.27238 35.5494 5.77382 35.3059 5.41636 34.9709L5.39072 34.9469L5.36197 34.9267C4.90281 34.6039 4.65824 34.1724 4.37591 33.5109L4.3674 33.4909L4.35719 33.4718C4.11364 33.0153 3.98164 32.421 3.98164 31.8071C3.98164 31.1933 4.11364 30.599 4.35719 30.1425C4.61184 29.6651 4.99594 29.1773 5.4203 28.6466C5.97921 28.254 6.49742 27.8952 7.00598 27.6542C7.62803 27.4255 8.25862 27.4214 8.83922 27.4214H13.6968V31.8071C13.6968 33.018 13.1823 34.0941 12.2909 34.8102ZM18.8827 17.1077L18.8968 17.0945L18.9098 17.0803C19.6533 16.2672 20.8007 15.8829 22.0423 15.75H22.1608C22.9161 15.75 23.5173 15.7593 23.9758 15.9742L23.9938 15.9826L24.0125 15.9896C24.7262 16.2572 25.1916 16.4902 25.5352 16.9195L25.5797 16.9752L25.638 17.0162C26.0972 17.339 26.3418 17.7704 26.6241 18.432L26.6326 18.4519L26.6428 18.4711C26.8864 18.9276 27.0184 19.5219 27.0184 20.1357C27.0184 20.7495 26.8864 21.3438 26.6428 21.8004C26.3882 22.2777 26.0041 22.7656 25.5797 23.2962C25.0499 23.6684 24.5567 24.0101 24.0737 24.25H22.1608H22.016C20.8441 24.25 19.6779 23.7596 18.9098 22.9197C18.0905 22.0239 17.5928 21.0532 17.5928 20C17.5928 18.9283 18.106 17.8356 18.8827 17.1077ZM4.12644 20C4.12644 18.9385 4.63136 17.8434 5.56116 16.972C6.46152 16.1281 7.63172 15.75 8.98402 15.75H13.8416V24.25H8.98402C7.67084 24.25 6.48137 23.7605 5.5473 23.015C4.62635 22.1457 4.12644 21.0562 4.12644 20Z" fill="#0094E7" stroke="#0094E7"/>
</svg>
