<svg width="58" height="58" viewBox="0 0 58 58" fill="none" xmlns="http://www.w3.org/2000/svg">
<path d="M29 0C12.9811 0 0 12.9811 0 29C0 45.0189 12.9811 58 29 58C29.6301 58 30.2543 57.9822 30.8725 57.9407C42.5163 57.1981 52.2877 49.5896 56.1868 39.1229C57.3581 35.9725 58 32.5613 58 29.001C57.999 12.9811 45.0179 0 29 0ZM44.8757 32.2571C44.4837 35.8648 43.5444 38.6884 42.0699 40.7209C40.6853 42.6289 38.7536 44.1331 36.2747 45.2263C35.2051 45.7142 34.1168 46.0767 33.0176 46.3315C32.6433 46.4203 32.2749 46.4915 31.8996 46.5576C30.9604 46.7117 30.0212 46.7838 29.0642 46.7779C27.329 46.7601 25.6886 46.5339 24.1252 46.0944C22.5974 45.6549 21.1594 45.013 19.8103 44.1627C18.9837 43.6393 18.1936 43.0516 17.4391 42.3731C14.5207 39.8054 12.9929 36.2214 12.8744 31.6211C12.8566 30.7352 12.8566 28.3047 12.8803 24.3276C12.8863 23.585 12.9159 22.4551 12.9751 20.9579C13.0285 19.4597 13.064 18.3368 13.064 17.5823C13.064 17.4757 13.0818 17.3799 13.0996 17.2969V11.2221H37.9388V17.9981H25.3143V17.9862H20.001V22.6161H27.8169V29.3802H20.0069C20.001 29.4573 20.001 29.5343 20.001 29.6123C19.9772 32.2512 20.8454 34.3261 22.5865 35.853C24.2328 37.2791 26.4204 37.999 29.1304 38.0227C30.6226 38.0346 31.9539 37.7847 33.1361 37.2741C33.9864 36.9058 34.7587 36.4001 35.454 35.7582C37.1596 34.2185 38.0158 32.1682 38.0336 29.6064C38.0395 28.8578 38.0158 28.2218 37.9506 27.7102H38.0336V23.6867H45.1365C45.1305 25.0891 45.1128 26.3374 45.0891 27.4317C45.0416 29.7486 44.9705 31.3535 44.8757 32.2571Z" fill="white"/>
</svg>
