<svg width="62" height="62" viewBox="0 0 62 62" fill="none" xmlns="http://www.w3.org/2000/svg">
<circle cx="31" cy="31" r="31" fill="white"/>
<path d="M16 18.4059C16 18.2449 16.3462 18.1236 16.5469 18.1236C18.6561 18.0359 20.767 17.9949 22.878 18.0005C29.688 18.0005 32.3342 21.6675 32.3342 26.3626C32.3342 32.5003 27.8078 35.1302 22.263 35.1302C21.3238 35.1302 21.0071 35.0831 20.3552 35.0831V44.3593C20.3552 44.5566 20.2778 44.6416 20.0771 44.6416H16.2781C16.0773 44.6416 16 44.5656 16 44.3683V18.4059ZM20.3552 31.2279C20.9205 31.2659 21.3717 31.2659 22.3495 31.2659C25.2168 31.2659 27.9219 30.2668 27.9219 26.4495C27.9219 23.3852 25.9847 21.8304 22.7049 21.8304C21.7363 21.8304 20.8063 21.8684 20.3552 21.9065V31.2279ZM41.4939 28.3518C39.5474 28.3518 38.8955 29.3129 38.8955 30.1057C38.8955 30.9817 39.3375 31.5772 41.9358 32.8967C45.7828 34.7356 47 36.4786 47 39.0705C47 42.9258 43.9983 45 39.9507 45C37.8016 45 35.9712 44.5566 34.916 43.9629C34.7632 43.8869 34.7245 43.7656 34.7245 43.5665V40.0226C34.7245 39.7873 34.8405 39.7022 35.0026 39.8253C36.4722 40.7645 38.1885 41.2626 39.9415 41.2588C41.888 41.2588 42.6945 40.466 42.6945 39.3836C42.6945 38.5076 42.1292 37.7528 39.6634 36.4804C36.1719 34.8406 34.7134 33.1718 34.7134 30.3808C34.7134 27.2694 37.1884 24.6866 41.4755 24.6866C43.5858 24.6866 45.0719 25.0069 45.8877 25.3563C46.0885 25.4794 46.1271 25.6766 46.1271 25.8377V29.1464C46.1271 29.3437 46.0019 29.4667 45.7625 29.3817C44.6686 28.75 43.0573 28.3446 41.4847 28.3446L41.4939 28.3518Z" fill="black"/>
</svg>
