<svg width="64" height="64" viewBox="0 0 64 64" fill="none" xmlns="http://www.w3.org/2000/svg">
<circle cx="32" cy="32" r="29.5" stroke="white" stroke-width="5"/>
<circle cx="31.5" cy="32.5" r="22.5" fill="white"/>
<path d="M34.1219 37.1958H28.9268C28.9268 31.9605 31.6975 30.2155 33.6024 29.1684C34.295 28.8194 34.8145 28.4704 35.1609 28.1214C36.0267 27.2489 35.6804 26.0273 35.5072 25.6783C34.9877 24.4568 33.7755 23.2352 31.5243 23.2352C27.8878 23.2352 27.1951 26.5508 27.1951 27.2489L22 26.5508C22.3463 23.5842 24.9439 18 31.5243 18C35.5072 18 38.9706 20.2686 40.356 23.5842C41.5682 26.5508 41.0487 29.692 38.9706 31.786C38.1048 32.6586 37.0658 33.1821 36.1999 33.7056C34.6414 34.5781 34.1219 35.4507 34.1219 37.1958ZM34.9877 42.431C34.9981 42.8957 34.9163 43.3579 34.7471 43.7904C34.5778 44.2229 34.3245 44.6169 34.002 44.9494C33.6796 45.2819 33.2944 45.5461 32.8693 45.7265C32.4441 45.9069 31.9874 45.9999 31.5261 46C31.0647 46.0001 30.608 45.9074 30.1828 45.7271C29.7575 45.547 29.3722 45.2829 29.0496 44.9506C28.727 44.6183 28.4735 44.2244 28.304 43.792C28.1345 43.3596 28.0525 42.8975 28.0627 42.4327C28.0827 41.5208 28.4562 40.653 29.1031 40.0151C29.7501 39.3773 30.6192 39.02 31.5243 39.0197C32.4295 39.0195 33.2987 39.3764 33.946 40.0139C34.5934 40.6515 34.9673 41.5191 34.9877 42.431Z" fill="#0094E7"/>
</svg>
